<svg width="16" height="16" viewBox="0 0 16 16" fill="none" xmlns="http://www.w3.org/2000/svg">
<g id="Outline/Electric plug" clip-path="url(#clip0_557_1648)">
<path id="Vector" d="M15.2463 5.33125C15.0828 4.95772 14.8478 4.61978 14.5545 4.3365C14.2583 4.04974 13.9101 3.82224 13.5285 3.66625C13.1298 3.50296 12.7029 3.41939 12.272 3.42025C11.8363 3.42025 11.4132 3.503 11.0155 3.66625C10.6338 3.82203 10.2855 4.04955 9.9895 4.3365C9.69592 4.61952 9.46088 4.95752 9.29775 5.33125C9.12956 5.71526 9.04298 6.13002 9.0435 6.54925V12.3705C9.0435 13.603 8.00975 14.6058 6.73825 14.6058C5.467 14.6058 4.4325 13.6027 4.4325 12.3705V9.68825H5.161C5.31425 9.68825 5.438 9.5685 5.438 9.42V8.427C6.235 7.94975 6.766 7.095 6.766 6.12025V4.99325H7.16725C7.31975 4.99325 7.44375 4.8735 7.44375 4.725V3.679C7.44375 3.555 7.35725 3.4505 7.23975 3.42H5.618V0.76825C5.61875 0.62025 5.49475 0.5 5.34175 0.5H4.973C4.81975 0.5 4.69625 0.62025 4.69625 0.76825V3.42H3.24825V0.76825C3.24825 0.62025 3.12425 0.5 2.9715 0.5H2.6025C2.45 0.5 2.326 0.62025 2.326 0.76825V3.42H0.7045C0.646531 3.43449 0.595007 3.46781 0.558 3.51472C0.520994 3.56163 0.500595 3.6195 0.5 3.67925V4.725C0.5 4.8735 0.624 4.99325 0.77625 4.99325H1.17775V6.12025C1.17775 7.09525 1.70825 7.9495 2.50575 8.427V9.42C2.50575 9.5685 2.62925 9.68825 2.782 9.68825H3.51075V12.3705C3.51075 12.793 3.5965 13.2028 3.7645 13.5887C3.9278 13.9624 4.16282 14.3004 4.45625 14.5835C4.75228 14.8705 5.10056 15.0982 5.48225 15.2542C5.88025 15.4175 6.3035 15.5 6.73875 15.5C7.174 15.5 7.59775 15.4175 7.99525 15.2542C8.37698 15.0984 8.72521 14.8707 9.021 14.5835C9.31492 14.3007 9.55009 13.9627 9.713 13.5887C9.88114 13.2046 9.96764 12.7898 9.967 12.3705V6.54925C9.967 5.317 11.0007 4.314 12.2725 4.314C13.5437 4.314 14.5782 5.31725 14.5782 6.54925V15.5H15.5V6.54925C15.5 6.12725 15.4143 5.717 15.2463 5.33125Z" fill="#AC0B0B"/>
</g>
<defs>
<clipPath id="clip0_557_1648">
<rect width="16" height="16" fill="white"/>
</clipPath>
</defs>
</svg>
